<svg width="40" height="40" viewBox="0 0 40 40" fill="none" xmlns="http://www.w3.org/2000/svg">
<path d="M20 2C26.0597 2 30.875 6.63128 30.875 12.2275C30.8749 14.6439 29.6249 18.2429 27.7227 22.3574C25.8426 26.4238 23.4106 30.822 21.2012 34.7832C20.7975 35.507 19.568 35.5192 19.1475 34.666C18.1858 32.7152 17.0678 30.6326 15.9414 28.5391C14.8116 26.4391 13.6722 24.3268 12.6523 22.2939C11.6319 20.2598 10.7437 18.3279 10.1113 16.5928C9.47353 14.8427 9.12505 13.3684 9.125 12.2275C9.125 6.63128 13.9403 2 20 2Z" stroke="black" stroke-width="2"/>
<circle cx="20" cy="13" r="4" stroke="black" stroke-width="2"/>
</svg>
