<svg width="34" height="34" viewBox="0 0 34 34" fill="none" xmlns="http://www.w3.org/2000/svg">
<path d="M13.8333 7.10928C14.5563 7.86891 13.8333 9.15606 13.3814 9.70468L11.6217 11.3639C10.6707 12.2606 10.3923 13.6831 11.0801 14.7946C13.5117 18.7235 16.8605 21.244 19.2505 22.5434C20.3143 23.1218 21.592 22.7927 22.4297 21.9183C23.1183 21.1995 23.8633 20.4488 24.3554 20.023C25.0753 19.4 25.9892 19.586 26.5558 19.8476C26.7747 19.9487 26.9546 20.1125 27.1177 20.2901C28.3359 21.6171 30.6883 24.1443 32.0372 25.467C33.2458 26.6522 33.0954 27.5367 32.7622 27.98C32.6437 28.1376 32.4876 28.2623 32.351 28.4045C31.8552 28.9209 30.8275 29.9287 29.4551 31.1009C27.4539 32.8101 25.8401 33 24.8072 33C23.7744 33 20.0303 32.4936 15.2534 29.0752C10.4765 25.6569 5.6996 20.5294 4.15033 17.6175C2.60106 14.7056 1.50366 12.4267 1.1809 9.70468C0.922685 7.52707 0.793782 7.10928 1.82642 5.40011C2.57258 4.16512 4.87332 2.33627 5.6996 1.47536C6.41924 0.72554 7.45228 1.00973 8.0481 1.33255C8.20843 1.41942 8.34544 1.53958 8.47385 1.66904C10.087 3.29546 13.1389 6.37976 13.8333 7.10928Z" stroke="black" stroke-width="2"/>
</svg>
